<?xml version="1.0" standalone="no"?>
<!DOCTYPE svg PUBLIC "-//W3C//DTD SVG 20010904//EN"
 "http://www.w3.org/TR/2001/REC-SVG-20010904/DTD/svg10.dtd">
<svg version="1.0" xmlns="http://www.w3.org/2000/svg"
 width="260.000000pt" height="260.000000pt" viewBox="0 0 260.000000 260.000000"
 preserveAspectRatio="xMidYMid meet">
<metadata>
Created by potrace 1.11, written by Peter Selinger 2001-2013
</metadata>
<g transform="translate(0.000000,260.000000) scale(0.100000,-0.100000)"
fill="#000000" stroke="none">
<path d="M1248 1958 c-67 -6 -165 -43 -201 -75 -16 -16 -21 -15 -64 6 -25 12
-65 26 -89 30 -35 7 -43 5 -47 -8 -6 -26 3 -41 26 -41 12 0 41 -9 65 -20 l42
-19 -39 -56 c-187 -266 -39 -636 280 -700 32 -7 138 -7 168 -1 52 11 118 38
160 64 l44 28 49 -25 c26 -13 65 -24 86 -25 31 -1 37 2 38 21 1 18 -6 24 -35
29 -36 7 -91 30 -91 39 0 3 15 28 34 55 58 84 79 152 78 255 0 138 -43 238
-139 330 -95 89 -220 128 -365 113z m177 -63 c92 -26 190 -107 235 -195 66
-129 53 -297 -34 -418 -28 -40 -31 -42 -44 -25 -30 39 -43 89 -47 177 -4 108
-25 163 -81 219 -51 51 -100 75 -168 83 -44 5 -56 4 -57 -7 0 -8 -1 -43 -1
-79 -1 -63 0 -65 26 -68 25 -3 26 -2 26 52 l0 55 28 -8 c73 -21 131 -71 158
-137 7 -18 16 -75 18 -129 5 -81 10 -105 35 -155 l30 -59 -44 -27 c-70 -41
-127 -54 -218 -50 -168 7 -301 109 -358 273 -29 85 -22 201 18 283 41 85 71
119 84 99 31 -45 41 -78 44 -142 7 -127 15 -163 48 -213 38 -57 113 -112 168
-120 22 -4 40 -10 40 -15 1 -5 2 -19 3 -31 1 -16 8 -23 23 -24 29 -2 30 3 29
121 -1 105 0 102 -45 96 -6 0 -9 -19 -7 -40 4 -58 -4 -67 -51 -52 -44 14 -78
42 -111 89 -32 44 -40 78 -43 170 -2 83 -17 136 -49 182 l-21 29 23 15 c103
68 223 85 343 51z"/>
<path d="M436 797 c-31 -84 -56 -155 -56 -159 0 -5 11 -8 24 -8 20 0 27 8 39
43 l14 42 59 0 59 0 15 -42 c12 -36 19 -43 41 -43 l27 0 -30 83 c-58 160 -81
222 -84 226 -2 2 -14 5 -28 6 -23 3 -28 -6 -80 -148z m104 23 c5 -19 10 -39
10 -45 0 -12 -59 -15 -66 -4 -3 5 3 31 13 58 19 53 26 52 43 -9z"/>
<path d="M1890 930 c-33 -33 -130 -188 -130 -207 0 -17 8 -19 70 -18 42 1 70
-3 71 -9 1 -6 1 -24 1 -39 -1 -25 3 -28 26 -25 23 3 27 8 27 33 -1 21 6 34 22
43 25 14 21 42 -6 42 -15 0 -18 11 -18 73 -1 120 -1 123 -24 124 -11 1 -28 -6
-39 -17z m13 -112 c-1 -29 -2 -56 -3 -60 0 -9 -80 -11 -80 -3 0 9 73 115 79
115 4 0 5 -24 4 -52z"/>
<path d="M2073 940 c-21 -9 -43 -38 -43 -58 0 -21 33 -22 47 -2 27 39 93 18
93 -30 0 -6 -31 -44 -70 -85 -38 -41 -70 -80 -71 -87 0 -7 -2 -21 -4 -30 -3
-16 7 -18 97 -18 97 0 99 1 96 22 -3 21 -8 23 -65 22 -35 0 -63 4 -63 8 0 4
29 37 65 72 53 52 65 70 65 96 0 79 -69 121 -147 90z"/>
<path d="M741 857 c-111 -57 -73 -230 50 -229 61 1 79 10 79 39 0 20 -4 24
-17 18 -58 -24 -97 -16 -117 23 -35 70 30 142 98 107 27 -14 36 -10 36 16 0
36 -79 52 -129 26z"/>
<path d="M965 858 c-51 -29 -71 -75 -62 -136 12 -69 87 -111 157 -88 37 12 44
23 30 46 -7 12 -12 12 -22 2 -20 -20 -67 -14 -93 13 -63 62 1 154 83 119 18
-7 32 -9 32 -4 0 4 2 15 5 22 12 31 -87 50 -130 26z"/>
<path d="M1172 845 c-29 -24 -50 -66 -46 -92 1 -7 2 -24 3 -37 2 -39 53 -83
101 -88 67 -6 125 27 100 57 -11 13 -15 13 -33 0 -30 -21 -80 -19 -102 5 -32
36 -14 47 74 45 l81 -2 0 28 c0 94 -107 144 -178 84z m106 -31 c41 -29 28 -44
-38 -44 -64 0 -72 8 -40 40 24 24 48 25 78 4z"/>
<path d="M1405 846 c-13 -13 -22 -30 -21 -37 7 -41 21 -58 65 -79 51 -23 61
-48 25 -60 -21 -8 -64 8 -64 23 0 5 -7 4 -15 -3 -35 -29 -1 -59 66 -60 106 0
112 110 8 144 -42 14 -49 52 -9 50 14 -1 32 -4 40 -7 8 -4 22 -2 30 3 13 9 12
13 -9 30 -33 28 -86 26 -116 -4z"/>
<path d="M1607 859 c-10 -6 -22 -22 -28 -36 -13 -36 11 -69 67 -93 24 -11 44
-24 44 -29 0 -13 -30 -42 -38 -38 -4 2 -19 9 -35 17 -38 19 -59 0 -32 -30 13
-15 30 -20 64 -20 25 0 51 4 57 8 18 12 33 47 29 68 -2 10 -4 22 -4 27 -1 4
-26 19 -56 33 -58 28 -60 30 -45 54 8 12 14 13 45 1 28 -10 40 -10 48 -1 9 9
6 16 -12 31 -25 21 -75 25 -104 8z"/>
</g>
</svg>
