<?xml version="1.0" encoding="utf-8"?>
<!-- Generator: Adobe Illustrator 21.1.0, SVG Export Plug-In . SVG Version: 6.00 Build 0)  -->
<svg version="1.1" id="access42" xmlns="http://www.w3.org/2000/svg" xmlns:xlink="http://www.w3.org/1999/xlink" x="0px" y="0px"
	 viewBox="0 0 60 45" style="enable-background:new 0 0 60 45;" xml:space="preserve">
<style type="text/css">
	.st0{fill:#151D34;}
</style>
<g id="access42_1_">
	<g>
		<path class="st0" d="M44.9,26.8c-1.6,0-3.1-0.5-4.3-1.4c2.5-2.6,4-6.1,4-9.9c0-7.9-6.4-14.3-14.3-14.3c-3.5,0-6.6,1.2-9.1,3.3
			c-1.5-1.2-3.4-1.9-5.5-1.9v1.6c1.6,0,3.1,0.5,4.3,1.4c-2.5,2.6-4,6.1-4,9.9c0,7.9,6.4,14.3,14.3,14.3c3.5,0,6.6-1.2,9.1-3.3
			c1.5,1.2,3.4,1.9,5.5,1.9V26.8z M17.5,15.4c0-3.4,1.4-6.5,3.6-8.8c1.1,1.3,1.8,3,1.8,4.9v2.1c0,4.7,3.6,8.5,8.2,9v1.9h1.6v-7h-1.6
			v3.4c-3.7-0.4-6.6-3.5-6.6-7.3v-2.1c0-2.3-0.9-4.4-2.3-6c2.2-1.7,4.9-2.8,7.9-2.8c7,0,12.7,5.7,12.7,12.7c0,3.4-1.4,6.5-3.6,8.8
			c-1.1-1.3-1.8-3-1.8-4.9v-2.1c0-5-4-9-9-9h-0.8v5.1h1.6V10c3.7,0.4,6.6,3.5,6.6,7.3v2.1c0,2.3,0.9,4.4,2.3,6
			c-2.2,1.7-4.9,2.8-7.9,2.8C23.2,28.1,17.5,22.4,17.5,15.4z"/>
		<g>
			<g>
				<path class="st0" d="M3.2,40.8l-1,2.9H0.5l3.7-10h1.7l3.7,10H7.9l-1-2.9H3.2z M5,35.4l-1.4,4.1h2.8L5,35.4z"/>
				<path class="st0" d="M16,38.3c-0.3-0.3-1-0.8-2-0.8c-1.4,0-2.4,1.1-2.4,2.5c0,1.4,1,2.5,2.4,2.5c1,0,1.6-0.5,2-0.8l0.4,1.3
					c-0.4,0.3-1.2,0.9-2.5,0.9c-2.3,0-3.9-1.7-3.9-3.9c0-2.2,1.7-3.9,3.9-3.9c1.2,0,2.1,0.5,2.5,0.9L16,38.3z"/>
				<path class="st0" d="M23.2,38.3c-0.3-0.3-1-0.8-2-0.8c-1.4,0-2.4,1.1-2.4,2.5c0,1.4,1,2.5,2.4,2.5c1,0,1.6-0.5,2-0.8l0.4,1.3
					c-0.4,0.3-1.2,0.9-2.5,0.9c-2.3,0-3.9-1.7-3.9-3.9c0-2.2,1.7-3.9,3.9-3.9c1.2,0,2.1,0.5,2.5,0.9L23.2,38.3z"/>
				<path class="st0" d="M28.1,36c2.3,0,3.6,1.6,3.6,3.9c0,0.1,0,0.3,0,0.4H26c0,1.3,1,2.2,2.3,2.2c1.1,0,1.8-0.6,2.1-1l1,0.8
					c-0.4,0.6-1.3,1.6-3.1,1.6c-2.3,0-3.9-1.6-3.9-3.9C24.4,37.7,26,36,28.1,36z M30.1,39.3c-0.1-1.2-0.9-1.9-2-1.9
					c-1.1,0-1.9,0.7-2,1.9H30.1z"/>
				<path class="st0" d="M33.4,41.6c0.3,0.5,0.9,1,1.8,1c0.7,0,1.1-0.3,1.1-0.9c0-1.4-3.6-0.9-3.6-3.5c0-1.3,1.1-2.1,2.6-2.1
					c1.4,0,2.2,0.8,2.4,1.4l-1.1,0.7c-0.2-0.3-0.6-0.8-1.4-0.8c-0.6,0-1,0.3-1,0.8c0,1.4,3.7,0.8,3.7,3.5c0,1.4-1.2,2.3-2.7,2.3
					c-1.5,0-2.3-0.8-2.7-1.5L33.4,41.6z"/>
				<path class="st0" d="M39.5,41.6c0.3,0.5,0.9,1,1.8,1c0.7,0,1.1-0.3,1.1-0.9c0-1.4-3.6-0.9-3.6-3.5c0-1.3,1.1-2.1,2.6-2.1
					c1.4,0,2.2,0.8,2.4,1.4l-1.1,0.7c-0.2-0.3-0.6-0.8-1.4-0.8c-0.6,0-1,0.3-1,0.8c0,1.4,3.7,0.8,3.7,3.5c0,1.4-1.2,2.3-2.7,2.3
					c-1.5,0-2.3-0.8-2.7-1.5L39.5,41.6z"/>
				<path class="st0" d="M44.7,40.1l4.3-6.4h1.8v6.2h1.2v1.4h-1.2v2.4h-1.6v-2.4h-4.6V40.1z M49.3,39.9v-4.3l-2.9,4.3H49.3z"/>
				<path class="st0" d="M53.1,43.1c0-2.8,4.6-4.5,4.6-6.7c0-0.9-0.6-1.5-1.6-1.5c-1,0-1.4,0.6-1.6,1.4l-1.4-0.4
					c0.2-0.9,1-2.4,3.1-2.4c1.9,0,3.1,1.2,3.1,2.9c0,2.8-4.1,4.3-4.4,5.9h4.5v1.4h-6.4V43.1z"/>
			</g>
		</g>
	</g>
</g>
</svg>
